<?xml version="1.0" standalone="no"?>
<!DOCTYPE svg PUBLIC "-//W3C//DTD SVG 20010904//EN"
 "http://www.w3.org/TR/2001/REC-SVG-20010904/DTD/svg10.dtd">
<svg version="1.0" xmlns="http://www.w3.org/2000/svg"
 width="512.000000pt" height="503.000000pt" viewBox="0 0 512.000000 503.000000"
 preserveAspectRatio="xMidYMid meet">
    <style>
        .circle {
            fill: #FFFFFF; /* White circle in light mode */
        }
        .symbol {
            fill: #000000; /* Black symbol in light mode */
        }
        @media (prefers-color-scheme: dark) {
            .circle { fill: #000000; } /* Black circle in dark mode */
            .symbol { fill: #FFFFFF; } /* White symbol in dark mode */
        }
    </style>
    <g transform="translate(0.000000,503.000000) scale(0.100000,-0.100000)">
        <path class="circle" d="M2400 4974 c-1097 -77 -1997 -858 -2220 -1927 -144 -690 36 -1445
475 -1992 205 -256 443 -458 725 -614 253 -141 516 -230 820 -278 160 -25 548
-25 705 0 531 85 983 314 1355 687 460 460 710 1060 710 1707 0 632 -248 1241
-687 1689 -382 389 -867 634 -1403 709 -108 15 -383 26 -480 19z"/>
        <path class="symbol" d="M2242 3602 c72 -26 137 -70 184 -127 24 -30 98 -182 226 -467 521 -1160 671 -1494 676
-1507 4 -11 -18 -13 -129 -9 -125 3 -138 6 -201 35 -84 40 -156 106 -196 181
-17 31 -111 242 -210 467 -256 585 -447 1020 -546 1244 -47 107 -86 199 -86
204 0 18 219 2 282 -21z m1318 -1 c145 -37 240 -90 340 -190 96 -95 142 -168
187 -296 26 -75 28 -90 28 -245 0 -160 -1 -168 -31 -253 -44 -122 -86 -189
-179 -283 -66 -67 -97 -89 -175 -127 -120 -59 -188 -77 -321 -84 l-105 -6 -78
174 c-43 96 -80 179 -83 185 -3 9 38 13 154 16 146 3 162 5 215 30 191 89 267
312 175 512 -29 62 -63 104 -116 140 -83 58 -99 60 -450 66 l-323 5 -63 138
c-35 76 -77 159 -94 185 l-31 47 78 6 c42 4 237 5 432 4 327 -2 362 -4 440
-24z m-1654 -369 c48 -189 48 -396 0 -585 -13 -51 -51 -155 -84 -232 l-60
-140 262 -5 263 -5 41 -28 c112 -73 112 -241 0 -314 -41 -27 -46 -28 -232 -34
-214 -7 -276 -21 -396 -87 -84 -46 -216 -178 -255 -254 l-30 -58 -219 0 c-170
0 -217 3 -213 13 3 6 125 280 272 607 147 327 335 746 417 930 83 184 155 344
161 355 10 18 12 16 30 -24 10 -24 30 -86 43 -139z"/>
    </g>
</svg>